ffmpeg started on 2016-11-23 at 15:17:29
Report written to "Output/NVENCh264/results/ffmpeg/sintelfast2500k.log"
Command line:
Tools/ffmpeg/ffmpeg -benchmark -y -i Input/y4m/sintel.y4m -c:v h264_nvenc -preset fast -b:v 2500k -an Output/NVENCh264/encoded/sintelfast2500k.mkv
ffmpeg version N-82227-gdb23fde Copyright (c) 2000-2016 the FFmpeg developers
  built with gcc 5.4.0 (Ubuntu 5.4.0-6ubuntu1~16.04.2) 20160609
  configuration: --prefix=/home/jaroslav/ffmpeg_build --pkg-config-flags=--static --extra-cflags=-I/home/jaroslav/ffmpeg_build/include --extra-ldflags=-L/home/jaroslav/ffmpeg_build/lib --bindir=/home/jaroslav/bin --enable-gpl --enable-libass --enable-libfdk-aac --enable-libfreetype --enable-libmp3lame --enable-libopus --enable-libtheora --enable-libvorbis --enable-libvpx --enable-libx264 --enable-libx265 --enable-nvenc --enable-libmfx --enable-libxvid --enable-libgsm --enable-libopencore-amrnb --enable-version3 --enable-nonfree
  libavutil      55. 35.100 / 55. 35.100
  libavcodec     57. 66.101 / 57. 66.101
  libavformat    57. 57.100 / 57. 57.100
  libavdevice    57.  2.100 / 57.  2.100
  libavfilter     6. 66.100 /  6. 66.100
  libswscale      4.  3.100 /  4.  3.100
  libswresample   2.  4.100 /  2.  4.100
  libpostproc    54.  2.100 / 54.  2.100
Input #0, yuv4mpegpipe, from 'Input/y4m/sintel.y4m':
  Duration: 00:00:20.83, start: 0.000000, bitrate: 2057307 kb/s
    Stream #0:0: Video: rawvideo (I420 / 0x30323449), yuv420p(progressive), 4096x1744, SAR 1:1 DAR 256:109, 24 fps, 24 tbr, 24 tbn, 24 tbc
Output #0, matroska, to 'Output/NVENCh264/encoded/sintelfast2500k.mkv':
  Metadata:
    encoder         : Lavf57.57.100
    Stream #0:0: Video: h264 (h264_nvenc) (Main) (H264 / 0x34363248), yuv420p, 4096x1744 [SAR 1:1 DAR 256:109], q=-1--1, 2500 kb/s, 24 fps, 1k tbn, 24 tbc
    Metadata:
      encoder         : Lavc57.66.101 h264_nvenc
    Side data:
      cpb: bitrate max/min/avg: 0/0/2500000 buffer size: 5000000 vbv_delay: -1
Stream mapping:
  Stream #0:0 -> #0:0 (rawvideo (native) -> h264 (h264_nvenc))
Press [q] to stop, [?] for help
frame=   23 fps=0.0 q=0.0 size=       0kB time=00:00:00.00 bitrate=N/A speed=   0x    frame=   44 fps= 43 q=49.0 size=       1kB time=00:00:00.54 bitrate=  10.8kbits/s speed=0.53x    frame=   65 fps= 42 q=49.0 size=       1kB time=00:00:01.41 bitrate=   4.1kbits/s speed=0.926x    frame=   86 fps= 42 q=49.0 size=       1kB time=00:00:02.29 bitrate=   2.6kbits/s speed=1.13x    frame=  107 fps= 42 q=49.0 size=       1kB time=00:00:03.16 bitrate=   1.9kbits/s speed=1.25x    frame=  128 fps= 42 q=49.0 size=       1kB time=00:00:04.04 bitrate=   1.5kbits/s speed=1.32x    frame=  149 fps= 42 q=49.0 size=    2685kB time=00:00:04.91 bitrate=4471.8kbits/s speed=1.38x    frame=  170 fps= 42 q=49.0 size=    2685kB time=00:00:05.79 bitrate=3796.4kbits/s speed=1.42x    frame=  179 fps= 32 q=49.0 size=    2685kB time=00:00:06.16 bitrate=3565.6kbits/s speed=1.12x    frame=  180 fps= 20 q=49.0 size=    2685kB time=00:00:06.20 bitrate=3542.0kbits/s speed=0.674x    frame=  181 fps= 15 q=49.0 size=    2685kB time=00:00:06.25 bitrate=3518.2kbits/s speed=0.519x    frame=  202 fps= 16 q=49.0 size=    2685kB time=00:00:07.12 bitrate=3086.2kbits/s speed=0.568x    frame=  223 fps= 17 q=49.0 size=    2685kB time=00:00:08.00 bitrate=2748.7kbits/s speed=0.613x    frame=  244 fps= 18 q=49.0 size=    2685kB time=00:00:08.87 bitrate=2477.7kbits/s speed=0.655x    frame=  265 fps= 19 q=49.0 size=    2685kB time=00:00:09.75 bitrate=2255.4kbits/s speed=0.693x    frame=  286 fps= 20 q=49.0 size=    5003kB time=00:00:10.62 bitrate=3857.1kbits/s speed=0.728x    frame=  306 fps= 20 q=49.0 size=    5325kB time=00:00:11.45 bitrate=3806.8kbits/s speed=0.759x    frame=  327 fps= 21 q=49.0 size=    5325kB time=00:00:12.33 bitrate=3536.7kbits/s speed=0.791x    frame=  348 fps= 22 q=49.0 size=    5325kB time=00:00:13.20 bitrate=3302.4kbits/s speed=0.82x    frame=  369 fps= 22 q=49.0 size=    5325kB time=00:00:14.08 bitrate=3097.3kbits/s speed=0.848x    frame=  390 fps= 23 q=49.0 size=    5325kB time=00:00:14.95 bitrate=2916.1kbits/s speed=0.874x    frame=  411 fps= 23 q=49.0 size=    5325kB time=00:00:15.83 bitrate=2754.9kbits/s speed=0.898x    frame=  432 fps= 24 q=49.0 size=    6280kB time=00:00:16.70 bitrate=3079.1kbits/s speed=0.921x    frame=  453 fps= 24 q=49.0 size=    6602kB time=00:00:17.58 bitrate=3075.6kbits/s speed=0.943x    frame=  474 fps= 25 q=49.0 size=    6602kB time=00:00:18.45 bitrate=2929.8kbits/s speed=0.964x    frame=  495 fps= 25 q=49.0 size=    6602kB time=00:00:19.33 bitrate=2797.2kbits/s speed=0.983x    frame=  500 fps= 25 q=49.0 Lsize=    7332kB time=00:00:20.79 bitrate=2888.8kbits/s speed=1.05x    
video:7328kB audio:0kB subtitle:0kB other streams:0kB global headers:0kB muxing overhead: 0.062076%
bench: utime=0.928s
bench: maxrss=836112kB
